<?xml version="1.0" encoding="UTF-8" standalone="no"?>
<!-- Created with Inkscape (http://www.inkscape.org/) -->

<svg
   width="100pt"
   height="100pt"
   viewBox="0 0 35.277778 35.277777"
   version="1.1"
   id="svg5"
   inkscape:version="1.1.2 (0a00cf5339, 2022-02-04)"
   sodipodi:docname="icon.svg"
   xmlns:inkscape="http://www.inkscape.org/namespaces/inkscape"
   xmlns:sodipodi="http://sodipodi.sourceforge.net/DTD/sodipodi-0.dtd"
   xmlns="http://www.w3.org/2000/svg"
   xmlns:svg="http://www.w3.org/2000/svg">
  <sodipodi:namedview
     id="namedview7"
     pagecolor="#505050"
     bordercolor="#ffffff"
     borderopacity="1"
     inkscape:pageshadow="0"
     inkscape:pageopacity="0"
     inkscape:pagecheckerboard="1"
     inkscape:document-units="pt"
     showgrid="false"
     showguides="false"
     units="pt"
     width="100pt"
     inkscape:zoom="8"
     inkscape:cx="60.625"
     inkscape:cy="56.75"
     inkscape:window-width="1920"
     inkscape:window-height="1053"
     inkscape:window-x="0"
     inkscape:window-y="0"
     inkscape:window-maximized="1"
     inkscape:current-layer="layer1"
     inkscape:snap-global="false" />
  <defs
     id="defs2" />
  <g
     inkscape:label="Layer 1"
     inkscape:groupmode="layer"
     id="layer1">
    <rect
       style="fill:#dcd8a4;stroke-width:1.55006;stroke-linecap:round;stroke-linejoin:round;paint-order:stroke markers fill;fill-opacity:1"
       id="rect843"
       width="35.277779"
       height="35.277779"
       x="0"
       y="-4.4408921e-16" />
    <path
       style="fill:#d7cc8d;fill-opacity:1;stroke:none;stroke-width:0.264583px;stroke-linecap:butt;stroke-linejoin:miter;stroke-opacity:1"
       d="M 35.277779,21.772034 9.9076069,0 H 0 v 6.5703511 l 15.926294,28.7074279 19.351485,0 z"
       id="path7510"
       sodipodi:nodetypes="ccccccc" />
    <path
       style="fill:#6bb03d;fill-opacity:1;stroke:none;stroke-width:0.2508px;stroke-linecap:butt;stroke-linejoin:miter;stroke-opacity:1"
       d="m 19.200358,34.957715 -3.169348,-3.014821 2.77769,1.247371 1.404511,-1.357275 1.677011,1.207497 1.007867,-0.82296 0.586301,0.638763 1.871178,-1.177352 -1.936928,2.776504 -2.178098,-0.275585 z"
       id="path17203-7" />
    <path
       style="fill:#6bb03d;fill-opacity:1;stroke:none;stroke-width:0.0907894px;stroke-linecap:butt;stroke-linejoin:miter;stroke-opacity:1"
       d="M 6.4338249,20.750465 5.2865208,19.6591 6.2920445,20.110648 6.8004776,19.619315 7.4075558,20.056428 7.7724036,19.758517 7.9846445,19.989749 8.6620108,19.563548 7.960843,20.568642 7.1723717,20.46888 Z"
       id="path17203-5" />
    <path
       style="fill:#6bb03d;fill-opacity:1;stroke:none;stroke-width:0.0907894px;stroke-linecap:butt;stroke-linejoin:miter;stroke-opacity:1"
       d="m 18.131887,21.882606 -1.147305,-1.091365 1.005524,0.451548 0.508433,-0.491333 0.607078,0.437113 0.364848,-0.297911 0.212241,0.231232 0.677366,-0.426201 -0.701167,1.005094 -0.788472,-0.09976 z"
       id="path17203-5-3" />
    <path
       style="fill:#6bb03d;fill-opacity:1;stroke:none;stroke-width:0.0907894px;stroke-linecap:butt;stroke-linejoin:miter;stroke-opacity:1"
       d="m 32.449024,19.489906 -1.147304,-1.091365 1.005523,0.451548 0.508434,-0.491333 0.607078,0.437113 0.364848,-0.297911 0.21224,0.231232 0.677367,-0.426201 -0.701168,1.005094 -0.788471,-0.09976 z"
       id="path17203-5-5" />
    <path
       style="fill:#cdb77e;fill-opacity:1;stroke:#000000;stroke-width:0.1763889;stroke-linecap:butt;stroke-linejoin:miter;stroke-opacity:1;stroke-miterlimit:4;stroke-dasharray:none"
       d="m 21.452918,18.752961 c -2.872875,0.326097 -4.48189,0.24717 -7.715237,-0.967848 -0.568197,-2.923503 9.853005,-17.11722279 16.2328,-2.199632 l 5.307298,13.45307 -1e-6,6.239227 -11.356409,1e-6 z"
       id="path1084"
       sodipodi:nodetypes="ccccccc" />
    <path
       style="fill:#d49d90;fill-opacity:1;stroke:#000000;stroke-width:0.1763889;stroke-linecap:round;stroke-linejoin:round;stroke-miterlimit:4;stroke-dasharray:none;stroke-opacity:1"
       d="m 13.934844,17.532207 c -1.359755,0.955966 -3.694571,1.776217 -2.798781,3.885772 l 0.517704,-0.657251 0.644612,0.88032 c -0.103495,-2.192276 -0.733638,-1.911053 2.063816,-4.00858 z"
       id="path1883"
       sodipodi:nodetypes="cccccc" />
    <path
       style="fill:#af9346;fill-opacity:1;stroke:none;stroke-width:0.264583px;stroke-linecap:butt;stroke-linejoin:miter;stroke-opacity:1"
       d="m 30.594761,17.390711 c -0.04776,1.472691 -1.102831,2.644474 -2.230683,3.794515 l 2.435773,0.281965 0.587719,3.507291 c 0.511708,-0.82395 0.702859,-1.677883 0.825865,-2.538191 l 0.383633,1.501229 c 0.0094,1.094391 -0.345129,2.638734 -0.816598,3.3916 l 1.471428,0.889717 0.213103,3.740928 c 0.43675,-0.584501 1.142414,-1.596713 1.725384,-2.894921 z"
       id="path4534"
       sodipodi:nodetypes="ccccccccccc" />
    <circle
       style="fill:#3c3218;fill-opacity:1;stroke:none;stroke-width:0.264583;stroke-linecap:round;stroke-linejoin:round;stroke-miterlimit:4;stroke-dasharray:none;stroke-opacity:1;paint-order:stroke markers fill"
       id="path6261"
       cx="19.415678"
       cy="9.6392889"
       r="0.69051498" />
    <circle
       style="fill:#3c3218;fill-opacity:1;stroke:none;stroke-width:0.264583;stroke-linecap:round;stroke-linejoin:round;stroke-miterlimit:4;stroke-dasharray:none;stroke-opacity:1;paint-order:stroke markers fill"
       id="path6261-3"
       cx="22.685701"
       cy="14.399022"
       r="0.69051498" />
    <path
       style="fill:#6bb03d;fill-opacity:1;stroke:none;stroke-width:0.184612px;stroke-linecap:butt;stroke-linejoin:miter;stroke-opacity:1"
       d="m 9.2313255,29.976491 -2.3329365,-2.21919 2.0446393,0.918182 1.0338514,-0.999081 1.2344373,0.88883 0.741884,-0.605775 0.431572,0.470189 1.377362,-0.866641 -1.42576,2.043766 -1.603283,-0.202856 z"
       id="path17203" />
    <path
       style="fill:#6bb03d;fill-opacity:1;stroke:none;stroke-width:0.184612px;stroke-linecap:butt;stroke-linejoin:miter;stroke-opacity:1"
       d="m 14.309252,30.271227 -2.332937,-2.21919 2.04464,0.918182 1.033851,-0.999081 1.234438,0.88883 0.741884,-0.605775 0.431572,0.470189 1.377362,-0.866641 -1.42576,2.043766 -1.603283,-0.202856 z"
       id="path17203-6" />
  </g>
</svg>
